<svg xmlns="http://www.w3.org/2000/svg" xmlns:xlink="http://www.w3.org/1999/xlink" viewBox="0 0 271.81 65.81"><defs><style>.cls-1{fill:url(#Nouvelle_nuance_de_dégradé_1)}.cls-2{fill:url(#Nouvelle_nuance_de_dégradé_1-2)}.cls-3{fill:url(#Nouvelle_nuance_de_dégradé_1-3)}.cls-4{fill:url(#Nouvelle_nuance_de_dégradé_1-4)}.cls-5{fill:url(#Nouvelle_nuance_de_dégradé_1-5)}.cls-6{fill:url(#Nouvelle_nuance_de_dégradé_1-6)}.cls-7{fill:url(#Nouvelle_nuance_de_dégradé_1-7)}.cls-8{fill:url(#Nouvelle_nuance_de_dégradé_1-8)}.cls-9{fill:url(#Nouvelle_nuance_de_dégradé_1-9)}.cls-10{fill:url(#Nouvelle_nuance_de_dégradé_1-10)}.cls-11{fill:url(#Nouvelle_nuance_de_dégradé_1-11)}.cls-12{fill:url(#Nouvelle_nuance_de_dégradé_1-12)}.cls-13{fill:#1a171b}</style><linearGradient id="Nouvelle_nuance_de_dégradé_1" x1="29.47" y1="50.83" x2="29.47" y2="4.23" gradientUnits="userSpaceOnUse"><stop offset="0" stop-color="#ffe800"/><stop offset=".14" stop-color="#fbdf00"/><stop offset=".39" stop-color="#f8d800"/><stop offset="1" stop-color="#f7d600"/></linearGradient><linearGradient id="Nouvelle_nuance_de_dégradé_1-2" x1="62.82" y1="50.88" x2="62.82" y2="6.08" xlink:href="#Nouvelle_nuance_de_dégradé_1"/><linearGradient id="Nouvelle_nuance_de_dégradé_1-3" x1="89.05" y1="50.58" x2="89.05" y2="23.32" xlink:href="#Nouvelle_nuance_de_dégradé_1"/><linearGradient id="Nouvelle_nuance_de_dégradé_1-4" x1="109.67" y1="50.57" x2="109.67" y2="23.06" xlink:href="#Nouvelle_nuance_de_dégradé_1"/><linearGradient id="Nouvelle_nuance_de_dégradé_1-5" x1="139.12" y1="51.02" x2="139.12" y2="5.6" xlink:href="#Nouvelle_nuance_de_dégradé_1"/><linearGradient id="Nouvelle_nuance_de_dégradé_1-6" x1="160.05" y1="65.81" x2="160.05" y2="6.1" xlink:href="#Nouvelle_nuance_de_dégradé_1"/><linearGradient id="Nouvelle_nuance_de_dégradé_1-7" x1="182.07" y1="50.53" x2="182.07" y2="23.26" xlink:href="#Nouvelle_nuance_de_dégradé_1"/><linearGradient id="Nouvelle_nuance_de_dégradé_1-8" x1="210.18" y1="5.29" x2="210.18" y2=".76" xlink:href="#Nouvelle_nuance_de_dégradé_1"/><linearGradient id="Nouvelle_nuance_de_dégradé_1-9" x1="214.69" y1="20.87" x2="214.69" y2="6.69" xlink:href="#Nouvelle_nuance_de_dégradé_1"/><linearGradient id="Nouvelle_nuance_de_dégradé_1-10" x1="214.71" y1="33.7" x2="214.71" y2="18.2" xlink:href="#Nouvelle_nuance_de_dégradé_1"/><linearGradient id="Nouvelle_nuance_de_dégradé_1-11" x1="214.83" y1="55.28" x2="214.83" y2="30.91" xlink:href="#Nouvelle_nuance_de_dégradé_1"/><linearGradient id="Nouvelle_nuance_de_dégradé_1-12" x1="250.73" y1="55.79" x2="250.73" xlink:href="#Nouvelle_nuance_de_dégradé_1"/></defs><title>Asset 1</title><g id="Layer_2" data-name="Layer 2"><g id="Calque_1" data-name="Calque 1"><path class="cls-1" d="M58.93 6.33q0 2.19-4.14 6.48a163 163 0 0 1-14.25 12.4 2.9 2.9 0 0 0 1.86 1.16 4.27 4.27 0 0 1 2.05.84 8.19 8.19 0 0 1 1.68 4.05l-3.49 12.81a2.28 2.28 0 0 0 1.21 2.24 11 11 0 0 0 3.45.32v.93s-.25.79-.74 2.28c-.22.65-.59 1-1.12 1q-8.76 0-10.49-6.28l3.49-13a2.08 2.08 0 0 0-2.1-1.86 2.11 2.11 0 0 0-1.44.65 13.2 13.2 0 0 1-1.58 1.45 10.15 10.15 0 0 1-2.7 1.21 3 3 0 0 0-1.72 1.12l-2.61 5.78a21.14 21.14 0 0 1-5.54 7.23 17.09 17.09 0 0 1-10.96 3.48 14.22 14.22 0 0 1-6.29-1.4Q0 47.59 0 44.79V42.7q0-1.63 1.86-1.63.79 0 2.54 1.86a5.11 5.11 0 0 0 3.75 1.87h2.33q6.2 0 12.33-15.16 0 .28 2.91-8t2.91-9.93q0-.7-1.54-1.21a15.53 15.53 0 0 0-5-.65 6.79 6.79 0 0 0-4 1 9.6 9.6 0 0 0-1.63 1.92 2 2 0 0 1-1.58 1 2 2 0 0 1-1.64-.77 3.39 3.39 0 0 1-.68-2.19q0-3.45 4.93-5.32a15.15 15.15 0 0 1 5.08-1.22h5.59a14.54 14.54 0 0 1 5.4 1.07Q37 6.65 37 8.89q0 2-2 8.67t-2 6.48q0 .93 1.4.93a9.7 9.7 0 0 0 2.75-2.1q4.24-4.15 11.69-14.45.96-1.2 1.79-2.42a3.53 3.53 0 0 1 2.47-1.53h4.2q1.63-.01 1.63 1.86z"/><path class="cls-2" d="M79.82 27.71l-5 16.91q.14 2.33 3.26 2.33v1.16q-.23.75-.88 2.47h-2.62a9.75 9.75 0 0 1-4.8-1.21q-2.19-1.21-2.19-2.93v-1.82l4.56-14.45c-.09-.47-.33-.7-.7-.7q-3 0-12 15.15l-2 4.47A3.5 3.5 0 0 1 54 50.88a2.5 2.5 0 0 1-1.82-.56 2.19 2.19 0 0 1-.56-1q-.23-.56-.51-.56-3.4 1.82-4.66 1.82h-.61a7 7 0 0 1 2.47-3.78 13.56 13.56 0 0 0 3.63-4.24q2.56-4.52 5.3-14.73.09-.79 5.12-15.94.64-1.89 1.2-3.76A3.61 3.61 0 0 1 67 6.08h1.91a2.69 2.69 0 0 1 2.75 2.19l-9.53 24.38.47.19 4.14-5q4.28-4.52 7-4.52h2a3.83 3.83 0 0 1 2.33.84 4.55 4.55 0 0 1 1.75 3.55z"/><path class="cls-3" d="M101.91 31.19a10.51 10.51 0 0 1-2.23 6.34 32.81 32.81 0 0 1-4.1 4.38Q93.34 44 93.34 44.8t2.47 1.68q1.68.37 3.36.79a8.41 8.41 0 0 1-.93 2.89 1.2 1.2 0 0 1-1.07.42 14.79 14.79 0 0 1-5.87-1.23 14.2 14.2 0 0 0-3.59-1.23l-9.64 2.48h-1.88v-.9A5.3 5.3 0 0 1 78.1 47a12.75 12.75 0 0 1 2.38-.51 11.25 11.25 0 0 0 4-1.54q-.7-1.35-1.39-2.66A12.77 12.77 0 0 1 82 37.07a13.26 13.26 0 0 1 4.33-9.83 12.53 12.53 0 0 1 8.85-3.92 7 7 0 0 1 4.66 1.74 5 5 0 0 1 2.05 3.75zm-4.47-.38a2.29 2.29 0 0 0-.56-1.54 1.86 1.86 0 0 0-1.49-.65q-1.86 0-3.7 2.59a8.38 8.38 0 0 0-1.84 4.73v1.91A5.37 5.37 0 0 0 91 40.79q6-5.32 6.43-9.98z"/><path class="cls-4" d="M121.64 33.91q0 1.35-2 5.74t-2 5.78a1.74 1.74 0 0 0 1.07 1.68q1.07.51 1.07.88 0 2.56-2.14 2.57a6.7 6.7 0 0 1-4.29-1.33 4.36 4.36 0 0 1-1.68-3.61q0-1.49 1.88-6t1.89-4.45a2.56 2.56 0 0 0-1.05-1.82 3 3 0 0 0-1.7-.93q-.6 0-1.91 3.54a47.81 47.81 0 0 1-3.16 7.04q-4.05 6.71-9.92 7.56.23-1.45.6-2.94.09-.19 1-.44a4.76 4.76 0 0 0 1.75-1q1.35-1.12 4.84-7.86t3.49-8.32a4.74 4.74 0 0 1-.78-2v-1.58a3.14 3.14 0 0 1 1.3-2.47 3.42 3.42 0 0 1 2-.89 2.86 2.86 0 0 1 1.54.61 2.75 2.75 0 0 1 1.25 2.33v1.82q0 .93 1.82 1.72 3.12 1.4 3.31 1.54a3.28 3.28 0 0 1 1.82 2.83z"/><path class="cls-5" d="M160 7.84a5.83 5.83 0 0 1-.65 1.91q-1.16 2.33-1.63 3.54-7.3 18.09-9.26 24a22.8 22.8 0 0 0-1.39 6.9 2.38 2.38 0 0 0 1.07 2.14 7.75 7.75 0 0 0 2.33.84v.93a22.07 22.07 0 0 0-.79 2.14q-.09.33-1.4.33a12 12 0 0 1-3.73-.65q-3-1-3.17-3 0-.23.07-1.07c0-.56.07-1.06.07-1.49a16.45 16.45 0 0 0-.14-2q-3.45 4.48-4.28 5.27a10.5 10.5 0 0 1-7.36 3.37 6.56 6.56 0 0 1-3.74-1 6.29 6.29 0 0 0-1.86-1q-.09 0-2.14.75l-2.19.84h-1.59a8.57 8.57 0 0 1 .84-3.21 2.42 2.42 0 0 1 1.35-.56 5.65 5.65 0 0 0 2.59-1.29v-4.24a16 16 0 0 1 2.4-7.53 23.93 23.93 0 0 1 6-7.2 13.58 13.58 0 0 1 8.43-3.27h1.77l3.4.7q1.26-.75 3-5.64 2.33-6.62 3.21-8.4 2.23-4.34 5-4.34a6 6 0 0 1 2.42.46A1.93 1.93 0 0 1 160 7.84zM143.71 29.4v-.89h-1.17q-4 0-8.39 5.5Q130 39.18 130 43a2.6 2.6 0 0 0 .61 1.77 1.9 1.9 0 0 0 1.49.7q2.89 0 7.32-7.78 2.14-4.15 4.29-8.29z"/><path class="cls-6" d="M168.42 25.32l-7 21.2v.84h4.33v.7a7.18 7.18 0 0 1-2.54 2.94 15.39 15.39 0 0 0-2.21 1.3 12.52 12.52 0 0 0-2.51 4.75q-3 8.76-7.45 8.76a3.76 3.76 0 0 1-2.45-1 2.65 2.65 0 0 1-1.14-2v-1.65q0-1.07 3.66-5.22t3.65-6.2a2.63 2.63 0 0 0-.33-1.26 37.29 37.29 0 0 1-4.52 2.05H149v-.88a8.66 8.66 0 0 1 2.7-3.4 10.9 10.9 0 0 0 2.7-2.33 26.44 26.44 0 0 0 3-7.6q2.32-8.67 3.67-11.14a3.14 3.14 0 0 1 2.84-1.91h1.86a2.48 2.48 0 0 1 2.65 2.05zm4.27-16.38a5.2 5.2 0 0 1-2 4.1 4.82 4.82 0 0 1-2.93 1.35q-3.49 0-3.49-3.4a4.66 4.66 0 0 1 1.46-3.47 5.1 5.1 0 0 1 3.7-1.42 3.21 3.21 0 0 1 2.37.84 2.74 2.74 0 0 1 .88 2z"/><path class="cls-7" d="M199.91 25.21q0 1.26-1.81 4.89-2.93 5.78-3.44 6.94a19 19 0 0 0-1.81 7q0 2.33 3.26 2.7v1q-.23.74-.42 1.44a1.62 1.62 0 0 1-1.58 1 10 10 0 0 1-4.61-1 3.85 3.85 0 0 1-2.42-3.59v-3.04l-3.45 4.1q-3.77 3.87-6.57 3.87h-2.42a5.47 5.47 0 0 1-2.17-.77 6.55 6.55 0 0 0-1.8-.77q-1.49.42-4.89 1.54h-1.54a8.29 8.29 0 0 1 .84-3.26 2.43 2.43 0 0 1 1.39-.61 5.26 5.26 0 0 0 2.53-1.2V43a17.33 17.33 0 0 1 3.17-9.83 23.61 23.61 0 0 1 6.83-6.6q3.77-2.47 6.43-2.47h2.33a11.06 11.06 0 0 1 2.4.55 18.51 18.51 0 0 0 2 .55q.51 0 1.12-1a1.75 1.75 0 0 1 1.49-1h1.82a5.08 5.08 0 0 1 2 .51q1.33.66 1.32 1.5zm-9.55 4.89a1 1 0 0 0-.47-.75 1.4 1.4 0 0 0-.84-.37h-2q-2.61 0-6.61 4.9Q176.2 39 176.21 43a2.52 2.52 0 0 0 .89 2 2.06 2.06 0 0 0 1.31.6q1.4 0 3.49-2.42l3.35-4.38a52.35 52.35 0 0 0 3.4-5.17 14.38 14.38 0 0 0 1.71-3.53z"/><path class="cls-8" d="M210.53 5.29a2.47 2.47 0 0 1-1.77-.73 2.37 2.37 0 0 1-.76-1.77 2.18 2.18 0 0 1 .44-1.31 1.62 1.62 0 0 1 1.4-.72 2.69 2.69 0 0 1 1.47.47 2.14 2.14 0 0 1 1.06 1.91q0 2.15-1.84 2.15z"/><path class="cls-9" d="M219 20.87a1.74 1.74 0 0 1-1.17-.48 1.36 1.36 0 0 1-.54-1c0-.19.14-.34.41-.45a2.79 2.79 0 0 0 .74-.43 1.59 1.59 0 0 0 .41-1.22 3.38 3.38 0 0 0-1.66-2.46 5.66 5.66 0 0 0-3.48-1.33 3.66 3.66 0 0 0-2.41 1 5.18 5.18 0 0 0-1.67 4.18h-.55l-.9-.33a.87.87 0 0 1-.32-.81 11.52 11.52 0 0 1 .43-3.18 11.05 11.05 0 0 1 .78-2.08l.44-.86L208 7.75V6.69a2.88 2.88 0 0 1 2 1.19 12.36 12.36 0 0 1 .44 1.48.85.85 0 0 0 .9.71 5.58 5.58 0 0 0 1-.19 5.78 5.78 0 0 1 .95-.19h1.1a6.46 6.46 0 0 1 5.21 2.86 8.07 8.07 0 0 1 1.92 4.85 4.44 4.44 0 0 1-.6 2.36 2.1 2.1 0 0 1-1.92 1.11z"/><path class="cls-10" d="M217.13 33.7a10.47 10.47 0 0 1-3.91-1.17 9.9 9.9 0 0 1-4-2.79 6.81 6.81 0 0 1-1.34-4.18 4.9 4.9 0 0 1 .55-2.14c.37-.76.55-1.1.55-1a10.13 10.13 0 0 1-1-3.73v-.49h.67q1.61.81 1.62 2v.24a.7.7 0 0 0 .21.57 2.56 2.56 0 0 0 1.22.19h1.8q2.26 0 5 2.36 3 2.55 3 5.21 0 1.17-.67 1.17a17.05 17.05 0 0 0-1.54-1.38 27.81 27.81 0 0 0-3.5-2.6 8.33 8.33 0 0 0-4.06-1.38 1.46 1.46 0 0 0-1.68 1.63q0 1.63 2.58 3.08a7.79 7.79 0 0 0 3.59 1.24q.25 0 .84-.58a2.06 2.06 0 0 1 1.51-.58 2.43 2.43 0 0 1 1.4.4 1.63 1.63 0 0 1 .74 1.43 2.24 2.24 0 0 1-1 1.87 2.94 2.94 0 0 1-1.7.6z"/><path class="cls-11" d="M218.61 55.28L211 52.74a1.33 1.33 0 0 0-.92.65s-.08.3-.18.76a.4.4 0 0 1-.41.38 2.25 2.25 0 0 1-.74-.21q-.67-.31-.67-.69a7.38 7.38 0 0 1 .46-2.79 2.3 2.3 0 0 1 2.23-1.67 16.43 16.43 0 0 1 4.06 1.27q3.23 1.27 3.37 1.27c.14 0 .21-.14.21-.43q0-.79-3.16-3.08a31.27 31.27 0 0 0-4.49-2.84l-1.59-.76c-.66-.4-1-.82-1-1.26V41.9a.9.9 0 0 1 .76-.91l9.07 3.45a2.11 2.11 0 0 0 .47-.17s.06-.16.06-.38q0-1.34-3.83-3.48l-6-3.22q-.65-.41-.65-1.91 0-.74.21-.91L209 34q-.23-.43-1-2.55v-.57h.42a3 3 0 0 1 1.68 1.36 5.27 5.27 0 0 0 .9 1.45 11.17 11.17 0 0 0 3.92 1.67q4.12 1.14 5 1.52 1.68.74 1.68 1.93 0 1.7-1 1.7a6.94 6.94 0 0 1-1.83-.64 6.19 6.19 0 0 0-2.06-.64 1.31 1.31 0 0 0-.32 0 10.45 10.45 0 0 0 1.66 1.44 11.85 11.85 0 0 1 2.07 1.94 4.42 4.42 0 0 1 1 2.77 2.41 2.41 0 0 1-.48 1.48 1.49 1.49 0 0 1-1.24.65 16 16 0 0 1-2.39-.81h-.32a3.76 3.76 0 0 0 1.41 1.58 19.35 19.35 0 0 1 2 1.65 3.43 3.43 0 0 1 1 2.39v1a1.77 1.77 0 0 1-.69 1.36 1.65 1.65 0 0 1-1 .53z"/><path class="cls-12" d="M268.43 50a5.75 5.75 0 0 1-5.75 5.75l-23.87.08a5.74 5.74 0 0 1-5.75-5.74V5.87a5.75 5.75 0 0 1 5.72-5.79L262.65 0a5.75 5.75 0 0 1 5.76 5.75z"/><path class="cls-13" d="M241.22 43.77V31.94l9.18-15.33-7.26-.06-6 8.73-3.71-2.59 6.88-11.16h13l1.34 1.31a5.55 5.55 0 0 0 4.23 3l1.61.68v9.81h11.25v4.4h-15.41V25l-5 8.64 9.14 6.29v17.15h-4.7V42.54l-9.06-5.86v12.51h-18.37v-5.42zM255.28 9.6a4.3 4.3 0 1 0 8.6 0 4.3 4.3 0 1 0-8.6 0z"/></g></g></svg>